<?xml version="1.0" encoding="UTF-8" standalone="no"?>
<svg
   height="400"
   viewBox="0 0 338.66666 105.83333"
   width="1280"
   version="1.1"
   id="svg21"
   sodipodi:docname="logo.svg"
   inkscape:version="1.3.2 (091e20e, 2023-11-25, custom)"
   xmlns:inkscape="http://www.inkscape.org/namespaces/inkscape"
   xmlns:sodipodi="http://sodipodi.sourceforge.net/DTD/sodipodi-0.dtd"
   xmlns="http://www.w3.org/2000/svg"
   xmlns:svg="http://www.w3.org/2000/svg">
  <defs
     id="defs21" />
  <sodipodi:namedview
     id="namedview21"
     pagecolor="#ffffff"
     bordercolor="#000000"
     borderopacity="0.25"
     inkscape:showpageshadow="2"
     inkscape:pageopacity="0.0"
     inkscape:pagecheckerboard="0"
     inkscape:deskcolor="#d1d1d1"
     inkscape:zoom="0.575"
     inkscape:cx="640"
     inkscape:cy="199.13043"
     inkscape:window-width="1440"
     inkscape:window-height="829"
     inkscape:window-x="-8"
     inkscape:window-y="-8"
     inkscape:window-maximized="1"
     inkscape:current-layer="svg21" />
  <g
     stroke-linecap="round"
     stroke-linejoin="round"
     id="g21">
    <g
       fill="#fc7f7f"
       transform="matrix(6.7162365 0 0 6.7162365 -2.742284 1.349991)"
       id="g8">
      <g
         stroke-width=".56953"
         id="g7">
        <rect
           height="8.883009"
           rx="1.092498"
           ry="1.538917"
           transform="matrix(.9909103 -.1345243 .1345243 .9909103 0 0)"
           width="2.221415"
           x="5.203683"
           y="6.055805"
           id="rect1" />
        <rect
           height="5.467088"
           rx=".802017"
           ry="1.198412"
           transform="matrix(.54469799 .83863228 -.83863228 .54469799 0 0)"
           width="1.930588"
           x="8.795094"
           y="-3.066115"
           id="rect2" />
        <rect
           height="7.164591"
           rx="1.070686"
           ry="1.022638"
           transform="matrix(.60608568 .79539937 -.79539937 .60608568 0 0)"
           width="2.141372"
           x="11.904073"
           y="-.859962"
           id="rect3" />
        <rect
           height="5.026798"
           rx=".87923"
           ry=".927702"
           transform="matrix(-.1527999 .98825715 -.98825715 -.1527999 0 0)"
           width="1.850128"
           x="5.020583"
           y="-12.504268"
           id="rect4" />
        <rect
           height="4.711493"
           rx=".885686"
           ry="1.107282"
           transform="matrix(-.93319403 .35937292 -.35937292 -.93319403 0 0)"
           width="1.771372"
           x="-1.284467"
           y="-10.730576"
           id="rect5" />
        <rect
           height="3.885432"
           rx=".827216"
           ry=".925773"
           transform="matrix(-.98543382 .17005935 -.17005935 -.98543382 0 0)"
           width="1.654432"
           x="-10.021316"
           y="-12.312589"
           id="rect6" />
        <rect
           height="4.652439"
           rx=".87624"
           ry="1.130695"
           transform="matrix(-.4223294 -.90644243 .90644243 -.4223294 0 0)"
           width="1.893028"
           x="-16.340654"
           y="1.082588"
           id="rect7" />
      </g>
      <path
         d="m6.9834368.703125c-1.7345599-.00010218-3.1407272 1.4060651-3.140625 3.140625-.0001022 1.7345599 1.4060651 3.1407272 3.140625 3.140625 1.7345599.0001022 3.1407272-1.4060651 3.1406252-3.140625.000102-1.7345599-1.4060653-3.14072718-3.1406252-3.140625zm.3769531 1.9199219c.00969-.0005737.019477 0 .029297 0 .3141222 0 .5683594.2967242.5683594.6660156v1.1308594c0 .3692914-.2542372.6660156-.5683594.6660156s-.5664063-.2967242-.5664063-.6660156v-1.1308594c0-.3577511.2366925-.6482281.5371093-.6660156zm-2.0820312.0019531c.3141222 0 .5664062.2986773.5664062.6679688v1.1308593c0 .3692915-.252284.6640625-.5664062.6640625s-.5683594-.294771-.5683594-.6640625v-1.1308593c0-.3692915.2542372-.6679688.5683594-.6679688z"
         stroke-width=".522523"
         id="path7" />
    </g>
    <g
       fill="#8da5f3"
       transform="matrix(6.8264957 0 0 6.8264957 230.435799 -.434314)"
       id="g17">
      <path
         d="m9.3668041.99371101a2.9583841 2.9583841 0 0 0 -2.95833 2.95832999 2.9583841 2.9583841 0 0 0 2.95833 2.95833 2.9583841 2.9583841 0 0 0 2.9583299-2.95833 2.9583841 2.9583841 0 0 0 -2.9583299-2.95832999zm1.4254889 1.75106379c.220501-.0008155.442424.1198489.447006.360772l.02288 1.2143056.0035.167187c.0091.4818462-.874289.4906457-.883452.0088l-.0035-.1654271s-.01621-.7220177-.02288-1.2160655c-.0033-.247024.215945-.3687558.436446-.369572z"
         stroke-width=".469898"
         id="path8" />
      <g
         stroke-width=".5"
         id="g16">
        <path
           d="m7.7698816 6.6598985-2.6531303 7.7157365z"
           id="path9" />
        <rect
           height="7.356935"
           rx=".903256"
           ry="1.052105"
           transform="matrix(.9170072 .39887066 -.39887066 .9170072 0 0)"
           width="1.938211"
           x="9.535926"
           y="1.332356"
           id="rect9" />
        <rect
           height="5.009075"
           rx=".915556"
           ry="1.052105"
           transform="matrix(.55901188 -.82915965 .82915965 .55901188 1.998728 -2.036238)"
           width="1.867841"
           x="-5.122834"
           y="9.881311"
           id="rect10" />
        <rect
           height="4.391775"
           rx=".875862"
           ry="1.052105"
           transform="matrix(-.60343375 -.79741313 .79741313 -.60343375 1.998728 -2.036238)"
           width="1.859666"
           x="-15.540003"
           y="-.287694"
           id="rect11" />
        <rect
           height="5.009075"
           rx=".915556"
           ry="1.052105"
           transform="matrix(-.16700665 .98595577 -.98595577 -.16700665 18.260695 13.809667)"
           width="1.867841"
           x="-5.474683"
           y="10.085874"
           id="rect12" />
        <rect
           height="4.176425"
           rx=".856693"
           ry="1.052105"
           transform="matrix(.77699348 .62950864 -.62950864 .77699348 18.260695 13.809667)"
           width="1.820414"
           x="-15.520487"
           y="2.083077"
           id="rect13" />
        <rect
           height="7.509681"
           rx=".915556"
           ry="1.052105"
           transform="matrix(-.51556399 .85685108 -.85685108 -.51556399 4.683894 26.532739)"
           width="1.899158"
           x="-15.551805"
           y="-.417529"
           id="rect14" />
        <rect
           height="5.009075"
           rx=".915556"
           ry="1.052105"
           transform="matrix(.48714092 -.87332338 .87332338 .48714092 -8.827668 8.614371)"
           width="1.867841"
           x="1.893664"
           y="10.518713"
           id="rect15" />
        <rect
           height="5.009075"
           rx=".915556"
           ry="1.052105"
           transform="matrix(-.87394185 -.4860305 .4860305 -.87394185 -8.827668 8.614371)"
           width="1.867841"
           x="-15.520487"
           y="2.083077"
           id="rect16" />
      </g>
    </g>
    <text
       fill="#414042"
       font-family="Microsoft YaHei"
       font-size="170.667"
       font-weight="bold"
       stroke-width=".5"
       transform="matrix(.2469193 0 0 .31522033 -6.375417 -33.675228)"
       id="text18"><tspan
         x="349.19336"
         y="280.2666"
         id="tspan18"><tspan
           font-family="Cyberion Demo"
           font-weight="normal"
           id="tspan17">GODOT</tspan></tspan></text>
    <rect
       fill="#7d7b7f"
       height="28.247028"
       rx=".21787"
       ry=".34465"
       stroke-width=".13765"
       transform="matrix(1 0 -.49652717 .86802118 -.275601 -16.191424)"
       width="146.93294"
       x="139.92125"
       y="86.787956"
       id="rect18" />
    <text
       fill="#dcefff"
       font-family="'Microsoft YaHei'"
       font-size="21.4329px"
       font-weight="bold"
       stroke-width="0.0869343"
       transform="scale(1.0081592,0.99190683)"
       id="text21"
       x="46.493484"
       y="34.50967"><tspan
         x="107.20734"
         y="80.42485"
         id="tspan21"
         style="font-style:normal;font-variant:normal;font-weight:normal;font-stretch:normal;font-family:'Dunkin Sans';-inkscape-font-specification:'Dunkin Sans';stroke-width:0.0869343">KINE<tspan
   style="font-style:normal;font-variant:normal;font-weight:normal;font-stretch:normal;font-family:'Dunkin Sans';-inkscape-font-specification:'Dunkin Sans';fill:#ffcfcf;fill-opacity:1;stroke-width:0.0869343"
   id="tspan22">BODY</tspan></tspan></text>
  </g>
</svg>
