<?xml version="1.0" encoding="UTF-8" standalone="no"?>
<svg
   height="400"
   viewBox="0 0 338.66666 105.83333"
   width="1280"
   version="1.1"
   id="svg21"
   sodipodi:docname="logo.svg"
   inkscape:version="1.3.2 (091e20e, 2023-11-25, custom)"
   xmlns:inkscape="http://www.inkscape.org/namespaces/inkscape"
   xmlns:sodipodi="http://sodipodi.sourceforge.net/DTD/sodipodi-0.dtd"
   xmlns="http://www.w3.org/2000/svg"
   xmlns:svg="http://www.w3.org/2000/svg">
  <defs
     id="defs21" />
  <sodipodi:namedview
     id="namedview21"
     pagecolor="#ffffff"
     bordercolor="#000000"
     borderopacity="0.25"
     inkscape:showpageshadow="2"
     inkscape:pageopacity="0.0"
     inkscape:pagecheckerboard="0"
     inkscape:deskcolor="#d1d1d1"
     inkscape:zoom="0.575"
     inkscape:cx="640"
     inkscape:cy="199.13043"
     inkscape:window-width="1440"
     inkscape:window-height="829"
     inkscape:window-x="-8"
     inkscape:window-y="-8"
     inkscape:window-maximized="1"
     inkscape:current-layer="svg21" />
  <g
     stroke-linecap="round"
     stroke-linejoin="round"
     id="g21">
    <g
       fill="#fc7f7f"
       transform="matrix(6.7162365 0 0 6.7162365 -2.742284 1.349991)"
       id="g8">
      <g
         stroke-width=".56953"
         id="g7">
        <rect
           height="8.883009"
           rx="1.092498"
           ry="1.538917"
           transform="matrix(.9909103 -.1345243 .1345243 .9909103 0 0)"
           width="2.221415"
           x="5.203683"
           y="6.055805"
           id="rect1" />
        <rect
           height="5.467088"
           rx=".802017"
           ry="1.198412"
           transform="matrix(.54469799 .83863228 -.83863228 .54469799 0 0)"
           width="1.930588"
           x="8.795094"
           y="-3.066115"
           id="rect2" />
        <rect
           height="7.164591"
           rx="1.070686"
           ry="1.022638"
           transform="matrix(.60608568 .79539937 -.79539937 .60608568 0 0)"
           width="2.141372"
           x="11.904073"
           y="-.859962"
           id="rect3" />
        <rect
           height="5.026798"
           rx=".87923"
           ry=".927702"
           transform="matrix(-.1527999 .98825715 -.98825715 -.1527999 0 0)"
           width="1.850128"
           x="5.020583"
           y="-12.504268"
           id="rect4" />
        <rect
           height="4.711493"
           rx=".885686"
           ry="1.107282"
           transform="matrix(-.93319403 .35937292 -.35937292 -.93319403 0 0)"
           width="1.771372"
           x="-1.284467"
           y="-10.730576"
           id="rect5" />
        <rect
           height="3.885432"
           rx=".827216"
           ry=".925773"
           transform="matrix(-.98543382 .17005935 -.17005935 -.98543382 0 0)"
           width="1.654432"
           x="-10.021316"
           y="-12.312589"
           id="rect6" />
        <rect
           height="4.652439"
           rx=".87624"
           ry="1.130695"
           transform="matrix(-.4223294 -.90644243 .90644243 -.4223294 0 0)"
           width="1.893028"
           x="-16.340654"
           y="1.082588"
           id="rect7" />
      </g>
      <path
         d="m6.9834368.703125c-1.7345599-.00010218-3.1407272 1.4060651-3.140625 3.140625-.0001022 1.7345599 1.4060651 3.1407272 3.140625 3.140625 1.7345599.0001022 3.1407272-1.4060651 3.1406252-3.140625.000102-1.7345599-1.4060653-3.14072718-3.1406252-3.140625zm.3769531 1.9199219c.00969-.0005737.019477 0 .029297 0 .3141222 0 .5683594.2967242.5683594.6660156v1.1308594c0 .3692914-.2542372.6660156-.5683594.6660156s-.5664063-.2967242-.5664063-.6660156v-1.1308594c0-.3577511.2366925-.6482281.5371093-.6660156zm-2.0820312.0019531c.3141222 0 .5664062.2986773.5664062.6679688v1.1308593c0 .3692915-.252284.6640625-.5664062.6640625s-.5683594-.294771-.5683594-.6640625v-1.1308593c0-.3692915.2542372-.6679688.5683594-.6679688z"
         stroke-width=".522523"
         id="path7" />
    </g>
    <g
       fill="#8da5f3"
       transform="matrix(6.8264957 0 0 6.8264957 230.435799 -.434314)"
       id="g17">
      <path
         d="m9.3668041.99371101a2.9583841 2.9583841 0 0 0 -2.95833 2.95832999 2.9583841 2.9583841 0 0 0 2.95833 2.95833 2.9583841 2.9583841 0 0 0 2.9583299-2.95833 2.9583841 2.9583841 0 0 0 -2.9583299-2.95832999zm1.4254889 1.75106379c.220501-.0008155.442424.1198489.447006.360772l.02288 1.2143056.0035.167187c.0091.4818462-.874289.4906457-.883452.0088l-.0035-.1654271s-.01621-.7220177-.02288-1.2160655c-.0033-.247024.215945-.3687558.436446-.369572z"
         stroke-width=".469898"
         id="path8" />
      <g
         stroke-width=".5"
         id="g16">
        <path
           d="m7.7698816 6.6598985-2.6531303 7.7157365z"
           id="path9" />
        <rect
           height="7.356935"
           rx=".903256"
           ry="1.052105"
           transform="matrix(.9170072 .39887066 -.39887066 .9170072 0 0)"
           width="1.938211"
           x="9.535926"
           y="1.332356"
           id="rect9" />
        <rect
           height="5.009075"
           rx=".915556"
           ry="1.052105"
           transform="matrix(.55901188 -.82915965 .82915965 .55901188 1.998728 -2.036238)"
           width="1.867841"
           x="-5.122834"
           y="9.881311"
           id="rect10" />
        <rect
           height="4.391775"
           rx=".875862"
           ry="1.052105"
           transform="matrix(-.60343375 -.79741313 .79741313 -.60343375 1.998728 -2.036238)"
           width="1.859666"
           x="-15.540003"
           y="-.287694"
           id="rect11" />
        <rect
           height="5.009075"
           rx=".915556"
           ry="1.052105"
           transform="matrix(-.16700665 .98595577 -.98595577 -.16700665 18.260695 13.809667)"
           width="1.867841"
           x="-5.474683"
           y="10.085874"
           id="rect12" />
        <rect
           height="4.176425"
           rx=".856693"
           ry="1.052105"
           transform="matrix(.77699348 .62950864 -.62950864 .77699348 18.260695 13.809667)"
           width="1.820414"
           x="-15.520487"
           y="2.083077"
           id="rect13" />
        <rect
           height="7.509681"
           rx=".915556"
           ry="1.052105"
           transform="matrix(-.51556399 .85685108 -.85685108 -.51556399 4.683894 26.532739)"
           width="1.899158"
           x="-15.551805"
           y="-.417529"
           id="rect14" />
        <rect
           height="5.009075"
           rx=".915556"
           ry="1.052105"
           transform="matrix(.48714092 -.87332338 .87332338 .48714092 -8.827668 8.614371)"
           width="1.867841"
           x="1.893664"
           y="10.518713"
           id="rect15" />
        <rect
           height="5.009075"
           rx=".915556"
           ry="1.052105"
           transform="matrix(-.87394185 -.4860305 .4860305 -.87394185 -8.827668 8.614371)"
           width="1.867841"
           x="-15.520487"
           y="2.083077"
           id="rect16" />
      </g>
    </g>
    <path
       style="font-size:170.667px;font-family:'Cyberion Demo';fill:#414042;stroke-width:0.5"
       d="m 397.83346,220.19181 c 0,-19.1147 8.19201,-26.11205 23.38138,-26.11205 14.33603,0 22.69871,2.56001 24.74671,14.67737 h 36.35208 c -0.85334,-47.95743 -29.86673,-50.51744 -60.75746,-50.51744 -33.1094,0 -64.6828,4.43734 -64.6828,61.95212 0,61.95213 31.74407,62.6348 52.56544,62.6348 23.89338,0 35.15741,-12.62936 36.35208,-17.0667 v 14.50669 h 36.35207 v -62.12279 h -57.85612 v 16.89603 h 20.82138 c -2.73067,9.89869 -10.75202,14.33603 -23.89338,14.33603 -18.09071,0 -23.38138,-7.16801 -23.38138,-29.18406 z m 98.98681,0 c 0,61.95213 31.91473,62.6348 65.53613,62.6348 33.45074,0 66.04814,-0.68267 66.04814,-62.6348 0,-61.95212 -32.5974,-61.95212 -66.04814,-61.95212 -33.6214,0 -65.53613,0 -65.53613,61.95212 z m 40.96009,0 c 0,-22.01604 5.46134,-26.11205 24.23471,-26.11205 19.11471,0 25.42939,4.09601 25.42939,26.11205 0,22.01605 -6.31468,26.79473 -25.42939,26.79473 -18.77337,0 -24.23471,-4.77868 -24.23471,-26.79473 z m 106.83755,60.07479 h 72.70415 c 39.76541,0 47.61609,-24.06405 47.61609,-60.07479 0,-35.84007 -7.85068,-59.39211 -47.61609,-59.39211 h -72.70415 z m 40.10675,-30.72006 v -58.02678 h 18.26137 c 10.24002,0 20.99204,1.19467 20.99204,29.01339 0,27.81872 -10.75202,29.01339 -20.99204,29.01339 z m 95.5734,-29.35473 c 0,61.95213 31.91473,62.6348 65.53613,62.6348 33.45073,0 66.04813,-0.68267 66.04813,-62.6348 0,-61.95212 -32.5974,-61.95212 -66.04813,-61.95212 -33.6214,0 -65.53613,0 -65.53613,61.95212 z m 40.96008,0 c 0,-22.01604 5.46134,-26.11205 24.23471,-26.11205 19.11471,0 25.42939,4.09601 25.42939,26.11205 0,22.01605 -6.31468,26.79473 -25.42939,26.79473 -18.77337,0 -24.23471,-4.77868 -24.23471,-26.79473 z m 129.87752,60.07479 h 40.10675 v -88.74684 h 31.57339 V 160.7997 H 919.56227 v 30.72006 h 31.57339 z"
       id="text18"
       transform="matrix(.2469193 0 0 .31522033 -6.375417 -33.675228)"
       aria-label="GODOT" />
    <rect
       fill="#7d7b7f"
       height="28.247028"
       rx=".21787"
       ry=".34465"
       stroke-width=".13765"
       transform="matrix(1 0 -.49652717 .86802118 -.275601 -16.191424)"
       width="146.93294"
       x="139.92125"
       y="86.787956"
       id="rect18" />
    <g
       id="text21"
       style="font-weight:bold;font-size:21.4329px;font-family:'Microsoft YaHei';fill:#dcefff;stroke-width:0.0869343"
       transform="scale(1.0081592,0.99190683)"
       aria-label="KINEBODY">
      <path
         style="font-weight:normal;font-family:'Dunkin Sans';-inkscape-font-specification:'Dunkin Sans'"
         d="m 111.91671,68.222331 4.06053,-3.736106 q 0.11512,-0.167445 0.29303,-0.345355 0.66978,-0.669778 1.66398,-0.669778 0.9942,0 1.67445,0.680243 0.68024,0.680244 0.68024,1.622119 0,0.941876 -0.68024,1.622119 -0.23024,0.230236 -0.47094,0.366285 l -4.65705,4.290766 4.65705,4.290766 q 0.2407,0.136049 0.4814,0.366285 0.66978,0.680243 0.66978,1.622119 0,0.941875 -0.68024,1.622119 -0.68025,0.680243 -1.67445,0.680243 -0.9942,0 -1.67444,-0.690709 -0.16745,-0.156979 -0.28257,-0.324423 l -4.06053,-3.736106 v 2.448876 q 0,0.941875 -0.68024,1.622119 -0.68024,0.680243 -1.67444,0.680243 -0.99421,0 -1.67445,-0.680243 -0.68024,-0.680244 -0.68024,-1.622119 v -12.55834 q 0,-0.941875 0.68024,-1.622119 0.68024,-0.680243 1.67445,-0.680243 0.9942,0 1.67444,0.680243 0.68024,0.680244 0.68024,1.622119 z m 14.6514,10.109463 q 0,0.941875 -0.68024,1.622119 -0.68025,0.680243 -1.67445,0.680243 -0.9942,0 -1.67444,-0.680243 -0.68025,-0.680244 -0.68025,-1.622119 v -12.55834 q 0,-0.941875 0.68025,-1.622119 0.68024,-0.680243 1.67444,-0.680243 0.9942,0 1.67445,0.680243 0.68024,0.680244 0.68024,1.622119 z m 9.94202,-7.461747 v -5.096593 q 0,-0.941875 0.68024,-1.622119 0.68024,-0.680243 1.67445,-0.680243 0.9942,0 1.67444,0.680243 0.68024,0.680244 0.68024,1.622119 v 12.55834 q 0,0.941875 -0.68024,1.622119 -0.68024,0.680243 -1.67444,0.680243 -0.99421,0 -1.67445,-0.690709 -0.23024,-0.21977 -0.31396,-0.355819 l -4.02913,-6.352427 v 5.096593 q 0,0.941875 -0.68024,1.622119 -0.68025,0.680243 -1.67445,0.680243 -0.9942,0 -1.67445,-0.680243 -0.68024,-0.680244 -0.68024,-1.622119 v -12.55834 q 0,-0.941875 0.68024,-1.622119 0.68025,-0.680243 1.67445,-0.680243 0.9942,0 1.69538,0.690709 0.2093,0.230236 0.29302,0.355819 z m 14.91303,-1.119785 q 0.9942,0 1.67444,0.680243 0.68025,0.680244 0.68025,1.622119 0,0.941876 -0.68025,1.622119 -0.68024,0.680243 -1.67444,0.680243 h -3.92448 v 1.674446 h 6.01753 q 0.99421,0 1.67445,0.680243 0.68024,0.680243 0.68024,1.622119 0,0.941875 -0.68024,1.622119 -0.68024,0.680243 -1.67445,0.680243 h -8.37222 q -0.9942,0 -1.67445,-0.680243 -0.68024,-0.680244 -0.68024,-1.622119 v -12.55834 q 0,-0.941875 0.68024,-1.622119 0.68025,-0.680243 1.67445,-0.680243 h 8.37222 q 0.99421,0 1.67445,0.680243 0.68024,0.680244 0.68024,1.622119 0,0.941876 -0.68024,1.622119 -0.68024,0.680244 -1.67445,0.680244 h -6.01753 v 1.674445 z"
         id="path22" />
      <path
         style="font-weight:normal;font-family:'Dunkin Sans';-inkscape-font-specification:'Dunkin Sans';fill:#ffcfcf"
         d="m 165.02802,74.354986 h -2.87795 v 1.674446 h 2.87795 q 0.3035,0 0.5442,-0.240702 0.2407,-0.240701 0.2407,-0.596521 0,-0.35582 -0.2407,-0.596521 -0.2407,-0.240702 -0.5442,-0.240702 z m 0,-4.604724 q 0.3035,0 0.5442,-0.240702 0.2407,-0.240701 0.2407,-0.596521 0,-0.355819 -0.2407,-0.596521 -0.2407,-0.240701 -0.5442,-0.240701 h -2.87795 v 1.674445 z m -7.58733,-3.976808 q 0,-0.941875 0.68025,-1.622119 0.68024,-0.680243 1.67444,-0.680243 h 5.23264 q 2.2919,0 3.89309,1.601188 1.60119,1.601189 1.60119,3.840759 0,1.84189 -0.99421,3.139585 0.99421,1.297695 0.99421,3.139585 0,2.239571 -1.60119,3.840759 -1.60119,1.601188 -3.89309,1.601188 h -5.23264 q -0.9942,0 -1.67444,-0.680243 -0.68025,-0.680244 -0.68025,-1.622119 z m 23.28526,14.860702 q -3.5896,0 -6.11173,-2.522133 -2.52213,-2.522133 -2.52213,-6.059399 0,-3.537266 2.52213,-6.059399 2.52213,-2.522133 6.11173,-2.522133 3.58959,0 6.11172,2.522133 2.52213,2.522133 2.52213,6.059399 0,3.537266 -2.52213,6.059399 -2.52213,2.522133 -6.11172,2.522133 z m 0,-4.604724 q 1.61165,0 2.76283,-1.151181 1.16165,-1.161647 1.16165,-2.825627 0,-1.66398 -1.16165,-2.815161 -1.15118,-1.161646 -2.76283,-1.161646 -1.61166,0 -2.7733,1.161646 -1.15119,1.151181 -1.15119,2.815161 0,1.66398 1.15119,2.825627 1.16164,1.151181 2.7733,1.151181 z m 14.91302,-7.953615 v 7.953615 q 1.35002,0 2.50121,-1.151181 1.16164,-1.161647 1.16164,-2.825627 0,-1.66398 -1.16164,-2.815161 -1.15119,-1.161646 -2.50121,-1.161646 z m -0.26163,12.558339 h -2.09306 q -0.9942,0 -1.67444,-0.680243 -0.68024,-0.680244 -0.68024,-1.622119 v -12.55834 q 0,-0.941875 0.68024,-1.622119 0.68024,-0.680243 1.67444,-0.680243 h 2.09306 q 3.58959,0 6.11173,2.522133 2.52213,2.522133 2.52213,6.059399 0,3.537266 -2.52213,6.059399 -2.52214,2.522133 -6.11173,2.522133 z m 19.05728,-16.28398 q 0.0209,-0.0314 0.17791,-0.188375 0.70118,-0.690709 1.69538,-0.690709 0.9942,0 1.67444,0.680243 0.68025,0.680244 0.68025,1.622119 0,0.91048 -0.29303,1.402348 l -3.43261,5.044267 -0.46048,0.680243 v 5.431482 q 0,0.941875 -0.68024,1.622119 -0.68024,0.680243 -1.67444,0.680243 -0.99421,0 -1.67445,-0.680243 -0.68024,-0.680244 -0.68024,-1.622119 v -5.431482 l -0.46048,-0.680243 -3.43261,-5.044267 q -0.29303,-0.491868 -0.29303,-1.402348 0,-0.941875 0.68025,-1.622119 0.68024,-0.680243 1.67444,-0.680243 0.9942,0 1.69538,0.690709 0.15698,0.156979 0.17791,0.188375 l 2.31283,3.464009 z"
         id="path23" />
    </g>
  </g>
</svg>
