<svg height="16" width="16" xmlns="http://www.w3.org/2000/svg"><g fill="#fc7f7f" stroke-linecap="round" stroke-linejoin="round" transform="translate(2.38948 .510798)"><g stroke-width=".56953"><rect height="8.883009" rx="1.092498" ry="1.538917" transform="matrix(.9909103 -.1345243 .1345243 .9909103 0 0)" width="2.221415" x="5.203683" y="6.055805"/><rect height="5.467088" rx=".802017" ry="1.198412" transform="matrix(.54469799 .83863228 -.83863228 .54469799 0 0)" width="1.930588" x="8.795094" y="-3.066115"/><rect height="7.164591" rx="1.070686" ry="1.022638" transform="matrix(.60608568 .79539937 -.79539937 .60608568 0 0)" width="2.141372" x="11.904073" y="-.859962"/><rect height="5.026798" rx=".87923" ry=".927702" transform="matrix(-.1527999 .98825715 -.98825715 -.1527999 0 0)" width="1.850128" x="5.020583" y="-12.504268"/><rect height="4.711493" rx=".885686" ry="1.107282" transform="matrix(-.93319403 .35937292 -.35937292 -.93319403 0 0)" width="1.771372" x="-1.284467" y="-10.730576"/><rect height="3.885432" rx=".827216" ry=".925773" transform="matrix(-.98543382 .17005935 -.17005935 -.98543382 0 0)" width="1.654432" x="-10.021316" y="-12.312589"/><rect height="4.652439" rx=".87624" ry="1.130695" transform="matrix(-.4223294 -.90644243 .90644243 -.4223294 0 0)" width="1.893028" x="-16.340654" y="1.082588"/></g><path d="m6.9834368.703125c-1.7345599-.00010218-3.1407272 1.4060651-3.140625 3.140625-.0001022 1.7345599 1.4060651 3.1407272 3.140625 3.140625 1.7345599.0001022 3.1407272-1.4060651 3.1406252-3.140625.000102-1.7345599-1.4060653-3.14072718-3.1406252-3.140625zm.3769531 1.9199219c.00969-.0005737.019477 0 .029297 0 .3141222 0 .5683594.2967242.5683594.6660156v1.1308594c0 .3692914-.2542372.6660156-.5683594.6660156s-.5664063-.2967242-.5664063-.6660156v-1.1308594c0-.3577511.2366925-.6482281.5371093-.6660156zm-2.0820312.0019531c.3141222 0 .5664062.2986773.5664062.6679688v1.1308593c0 .3692915-.252284.6640625-.5664062.6640625s-.5683594-.294771-.5683594-.6640625v-1.1308593c0-.3692915.2542372-.6679688.5683594-.6679688z" stroke-width=".522523"/><path d="m.81123523.40270717-.26835619 1.37421243h-.76133633l-.11529378.6511652h.75139698l-.19281892.9704054h-.70567686l-.12523313.6511652h.69971414l-.26239346 1.3382715h.68579906l.26835619-1.3382715h.82892297l-.2663683 1.3382715h.685799l.2822704-1.3382715h.7454334l.1490876-.6511652h-.7692878l.1987825-.9704054h.6957375l.1331846-.6511652h-.6957384l.2683562-1.37421243h-.6917627l-.2763076 1.37421243h-.8269343l.2643805-1.37421243zm.29817337 2.02537763h.8428372l-.2027583.9704054h-.83886145z" stroke-width=".524807"/></g></svg>